<?xml version="1.0" encoding="UTF-8"?>
<!DOCTYPE svg PUBLIC "-//W3C//DTD SVG 1.1//EN" "http://www.w3.org/Graphics/SVG/1.1/DTD/svg11.dtd">
<svg version="1.1" xmlns="http://www.w3.org/2000/svg" xmlns:xlink="http://www.w3.org/1999/xlink" x="0" y="0" width="1002.8" height="451.787" viewBox="0, 0, 1002.8, 451.787"><link xmlns="" type="text/css" rel="stylesheet" id="dark-mode-general-link"/><link xmlns="" type="text/css" rel="stylesheet" id="dark-mode-custom-link"/><style xmlns="" type="text/css" id="dark-mode-custom-style"/>
  <g id="Layer_1">
    <path d="M719.72,134.07 L541.269,134.07 C515.172,135.875 493.172,70.871 459.172,69.066 L289.172,69.066" fill-opacity="0" stroke="#000000" stroke-width="23"/>
    <path d="M289.172,352.07 L467.622,352.07 C493.72,353.875 515.72,288.871 549.72,287.066 L719.72,287.066" fill-opacity="0" stroke="#000000" stroke-width="23"/>
    <path d="M300.672,124.066 L300.672,293.219" fill-opacity="0" stroke="#656565" stroke-width="3"/>
    <path d="M334.672,124.066 L334.672,293.219" fill-opacity="0" stroke="#656565" stroke-width="6"/>
    <g>
      <path d="M701.976,69.066 L633.832,182.017" fill-opacity="0" stroke="#C81919" stroke-width="3"/>
      <path d="M633.832,182.017 L631.682,177.45 L629.493,189.21 L638.875,181.789 z" fill="#C81919" fill-opacity="1" stroke="#C81919" stroke-width="3" stroke-opacity="1"/>
    </g>
    <g>
      <path d="M621.976,377.96 L416.041,321.448" fill-opacity="0" stroke="#C81919" stroke-width="3"/>
      <path d="M416.041,321.448 L419.853,318.139 L407.941,319.225 L417.63,326.239 z" fill="#C81919" fill-opacity="1" stroke="#C81919" stroke-width="3" stroke-opacity="1"/>
    </g>
    <g>
      <path d="M529.372,21.96 L350.473,157.289" fill-opacity="0" stroke="#C81919" stroke-width="3"/>
      <path d="M350.473,157.289 L350.172,152.251 L343.774,162.357 L355.24,158.95 z" fill="#C81919" fill-opacity="1" stroke="#C81919" stroke-width="3" stroke-opacity="1"/>
    </g>
    <g>
      <path d="M377.72,409.96 L305.982,305.163" fill-opacity="0" stroke="#C81919" stroke-width="3"/>
      <path d="M305.982,305.163 L311.029,305.101 L301.237,298.232 L304.097,309.846 z" fill="#C81919" fill-opacity="1" stroke="#C81919" stroke-width="3" stroke-opacity="1"/>
    </g>
    <text transform="matrix(1, 0, 0, 1, 680.93, 385.067)">
      <tspan x="-49.725" y="5.606" font-family="Avenir-Medium" font-size="30" fill="#656565">Battery</tspan>
    </text>
    <text transform="matrix(1, 0, 0, 1, 761.462, 65.067)">
      <tspan x="-54.435" y="5.606" font-family="Avenir-Medium" font-size="30" fill="#656565">Resistor</tspan>
    </text>
    <text transform="matrix(1, 0, 0, 1, 878.51, 215.066)">
      <tspan x="-90.6" y="-11.5" font-family="Avenir-Medium" font-size="30" fill="#656565">Audio output</tspan>
      <tspan x="-75.885" y="29.5" font-family="Avenir-Medium" font-size="30" fill="#656565">to pre-amp</tspan>
    </text>
    <text transform="matrix(1, 0, 0, 1, 604.766, 22.5)">
      <tspan x="-66.69" y="7.5" font-family="Avenir-Medium" font-size="30" fill="#656565">Backplate</tspan>
    </text>
    <text transform="matrix(1, 0, 0, 1, 459.993, 427.787)">
      <tspan x="-75.285" y="6" font-family="Avenir-Medium" font-size="30" fill="#656565">Diaphragm</tspan>
    </text>
    <g>
      <path d="M147.642,94.212 C213.703,160.273 212.886,268.197 145.816,335.267" fill-opacity="0" stroke="#D0D0D0" stroke-width="10"/>
      <path d="M198.484,95.865 C264.545,161.926 263.728,269.85 196.658,336.92" fill-opacity="0" stroke="#D0D0D0" stroke-width="10"/>
      <g>
        <path d="M35.5,214.25 L152.7,214.25" fill-opacity="0" stroke="#DE787A" stroke-width="10"/>
        <path d="M152.7,214.25 L147.1,222.65 L169.5,214.25 L147.1,205.85 z" fill="#DE787A" fill-opacity="1" stroke="#DE787A" stroke-width="10" stroke-opacity="1"/>
      </g>
      <text transform="matrix(1, 0, 0, 1, 113.71, 183.75)">
        <tspan x="-88.935" y="6" font-family="Avenir-Medium" font-size="30" fill="#656565">Sound waves</tspan>
      </text>
    </g>
    <path d="M300.672,124.066 L300.672,103.066" fill-opacity="0" stroke="#000000" stroke-width="4"/>
    <path d="M300.672,103.066 L454.72,103.066" fill-opacity="0" stroke="#000000" stroke-width="4"/>
    <path d="M454.72,103.066 L553.72,206.066" fill-opacity="0" stroke="#000000" stroke-width="4"/>
    <path d="M553.72,206.066 L710.72,206.066" fill-opacity="0" stroke="#000000" stroke-width="4"/>
    <path d="M710.72,206.066 L710.72,257.066" fill-opacity="0" stroke="#000000" stroke-width="4"/>
    <path d="M768.72,257.066 L515.72,257.066" fill-opacity="0" stroke="#000000" stroke-width="4"/>
    <path d="M515.72,257.066 L470.72,312.066" fill-opacity="0" stroke="#000000" stroke-width="4"/>
    <path d="M377.72,312.066 L334.72,312.066" fill-opacity="0" stroke="#000000" stroke-width="4"/>
    <path d="M470.72,312.066 L399.72,312.066" fill-opacity="0" stroke="#000000" stroke-width="4"/>
    <path d="M334.72,312.066 L334.72,293.219" fill-opacity="0" stroke="#000000" stroke-width="4"/>
    <g>
      <path d="M598.672,196.672 L674.672,196.672 L674.672,220.613 L598.672,220.613 L598.672,196.672 z" fill="#FFFFFF"/>
      <path d="M598.672,196.672 L674.672,196.672 L674.672,220.613 L598.672,220.613 L598.672,196.672 z" fill-opacity="0" stroke="#000000" stroke-width="3"/>
    </g>
    <path d="M577.72,206.066 L577.72,172.066" fill-opacity="0" stroke="#000000" stroke-width="3"/>
    <path d="M577.72,172.066 L768.72,172.066" fill-opacity="0" stroke="#000000" stroke-width="3"/>
    <g>
      <path d="M577.72,216.142 C573.578,216.142 570.22,212.785 570.22,208.642 C570.22,204.5 573.578,201.142 577.72,201.142 C581.862,201.142 585.22,204.5 585.22,208.642 C585.22,212.785 581.862,216.142 577.72,216.142 z" fill="#000000"/>
      <path d="M577.72,216.142 C573.578,216.142 570.22,212.785 570.22,208.642 C570.22,204.5 573.578,201.142 577.72,201.142 C581.862,201.142 585.22,204.5 585.22,208.642 C585.22,212.785 581.862,216.142 577.72,216.142 z" fill-opacity="0" stroke="#000000" stroke-width="4"/>
    </g>
    <path d="M377.72,287.066 L377.72,334.066" fill-opacity="0" stroke="#000000" stroke-width="7"/>
    <path d="M393.826,297.407 L393.826,324.407" fill-opacity="0" stroke="#000000" stroke-width="14"/>
    <g>
      <path d="M768.72,192.666 L768.72,238.466" fill-opacity="0" stroke="#656565" stroke-width="4"/>
      <path d="M768.72,192.666 L773.52,195.866 L768.72,183.066 L763.92,195.866 z" fill="#656565" fill-opacity="1" stroke="#656565" stroke-width="4" stroke-opacity="1"/>
      <path d="M768.72,238.466 L763.92,235.266 L768.72,248.066 L773.52,235.266 z" fill="#656565" fill-opacity="1" stroke="#656565" stroke-width="4" stroke-opacity="1"/>
    </g>
  </g>
</svg>